<svg width="28" height="28" viewBox="0 0 28 28" fill="none" xmlns="http://www.w3.org/2000/svg">
<path d="M18.6667 11.6667H21.0001" stroke="#6D7F95" stroke-width="2.33333" stroke-linecap="round" stroke-linejoin="round"/>
<path d="M18.6667 16.3333H21.0001" stroke="#6D7F95" stroke-width="2.33333" stroke-linecap="round" stroke-linejoin="round"/>
<path d="M7.19824 17.4999C7.43874 16.8163 7.88553 16.2241 8.47693 15.8052C9.06833 15.3863 9.77519 15.1614 10.4999 15.1614C11.2246 15.1614 11.9315 15.3863 12.5229 15.8052C13.1143 16.2241 13.5611 16.8163 13.8016 17.4999" stroke="#6D7F95" stroke-width="2.33333" stroke-linecap="round" stroke-linejoin="round"/>
<path d="M10.5001 15.1667C11.7887 15.1667 12.8334 14.122 12.8334 12.8333C12.8334 11.5447 11.7887 10.5 10.5001 10.5C9.21142 10.5 8.16675 11.5447 8.16675 12.8333C8.16675 14.122 9.21142 15.1667 10.5001 15.1667Z" stroke="#6D7F95" stroke-width="2.33333" stroke-linecap="round" stroke-linejoin="round"/>
<path d="M23.3333 5.83325H4.66659C3.37792 5.83325 2.33325 6.87792 2.33325 8.16659V19.8333C2.33325 21.1219 3.37792 22.1666 4.66659 22.1666H23.3333C24.6219 22.1666 25.6666 21.1219 25.6666 19.8333V8.16659C25.6666 6.87792 24.6219 5.83325 23.3333 5.83325Z" stroke="#6D7F95" stroke-width="2.33333" stroke-linecap="round" stroke-linejoin="round"/>
</svg>
